<?xml version="1.0" encoding="UTF-8"?>
<!DOCTYPE svg PUBLIC "-//W3C//DTD SVG 1.1//EN" "http://www.w3.org/Graphics/SVG/1.1/DTD/svg11.dtd">
<!-- Creator: CorelDRAW 2020 (64-Bit) -->
<svg xmlns="http://www.w3.org/2000/svg" xml:space="preserve" width="100%" height="100%" version="1.1" style="shape-rendering:geometricPrecision; text-rendering:geometricPrecision; image-rendering:optimizeQuality; fill-rule:evenodd; clip-rule:evenodd"
viewBox="0 0 21000 7451.1"
 xmlns:xlink="http://www.w3.org/1999/xlink"
 xmlns:xodm="http://www.corel.com/coreldraw/odm/2003">
 <defs>
  <style type="text/css">
   <![CDATA[
    .fil0 {fill:#2048C7}
   ]]>
  </style>
 </defs>
 <g id="Слой_x0020_1">
  <metadata id="CorelCorpID_0Corel-Layer"/>
  <path class="fil0" d="M1785.71 4514.97l11971.78 0c85.09,-21.36 209.87,-37.5 294.68,-71.5 104.78,-42.01 148.53,-111.29 179.51,-204.26 31,-92.97 49.22,-209.63 63.8,-331.77 14.59,-122.14 25.53,-249.74 40.11,-351.82 14.59,-102.09 32.81,-178.65 63.8,-224.22 31,-45.58 74.75,-60.16 109.38,-43.76 34.64,16.41 60.16,63.81 72.92,131.26 12.76,67.44 12.76,154.94 12.76,220.57 0,65.63 0,109.38 1.82,142.19 1.83,32.81 5.48,54.69 10.95,72.92 5.47,18.22 12.75,32.81 30.99,45.58 18.23,12.75 47.39,23.69 71.09,41.92 23.7,18.22 41.92,43.75 56.5,72.92 14.59,29.16 25.53,61.97 43.75,91.14 18.23,29.16 43.76,54.69 78.39,71.09 34.64,16.41 78.39,23.69 118.49,18.22 40.11,-5.47 76.57,-23.69 103.91,-47.39 27.34,-23.7 45.57,-52.86 85.67,-67.44 40.11,-14.59 102.08,-14.59 145.83,5.47 43.75,20.05 69.28,60.15 85.68,92.96 16.41,32.81 23.69,58.34 41.92,94.79 18.23,36.46 47.39,83.86 80.71,125.87 33.32,42 70.78,78.63 109.11,96.94 38.33,18.31 77.53,18.31 117.13,5.47 39.61,-12.84 79.61,-38.53 123.31,-62.31 43.71,-23.78 91.11,-45.65 147.61,-42 56.51,3.64 122.14,32.8 159.55,56.59 37.42,23.78 46.64,42.17 74.48,51.36 27.84,9.2 74.33,9.2 104.36,-7.29 30.03,-16.49 43.6,-49.47 61.33,-71.42 17.73,-21.96 39.61,-32.9 63.3,-38.37 23.7,-5.47 49.23,-5.47 76.57,-20.05 27.34,-14.59 56.5,-43.75 100.25,-43.75 43.75,0 102.09,29.16 138.14,65.7 36.05,36.54 49.81,80.46 93.61,102.42 19.55,9.8 45.08,15.23 70.84,21.95l4003.15 0 0 502.63 -7.27 0c2.31,42.84 -1.22,84.27 -7.31,117.52 -14.58,79.67 -43.75,112.33 -72.92,130.48 -29.16,18.15 -58.32,21.8 -85.67,5.39 -27.34,-16.41 -52.87,-52.87 -78.39,-85.68 -25.52,-32.81 -51.04,-61.97 -83.86,-69.27 -32.81,-7.29 -72.91,7.29 -113.02,58.34 -40.11,51.04 -80.21,138.54 -100.26,236.97 -20.05,98.44 -20.05,207.81 -1.83,426.56 18.23,218.75 54.7,546.88 72.92,796.61 18.23,249.75 18.23,421.09 -9.11,552.34 -27.34,131.25 -82.03,222.4 -133.08,257.03 -51.04,34.64 -98.44,12.76 -134.89,-82.03 -36.46,-94.79 -61.98,-262.5 -71.09,-490.36 -9.11,-227.86 -1.83,-515.89 -10.94,-816.67 -9.11,-300.78 -34.64,-614.32 -52.87,-772.91 -18.22,-158.59 -29.16,-162.25 -54.69,-165.89 -25.52,-3.64 -65.62,-7.29 -110.24,-23.7 -44.61,-16.41 -93.74,-45.57 -132.02,-51.04 -38.28,-5.47 -65.72,12.75 -95.8,12.75 -30.07,0 -62.79,-18.22 -91.96,-9.11 -29.16,9.11 -54.78,45.58 -87.65,67.45 -32.86,21.88 -72.95,29.16 -123.04,10.94 -50.08,-18.23 -110.15,-61.98 -166.61,-83.86 -56.46,-21.88 -109.33,-21.88 -161.33,7.29 -51.99,29.16 -103.13,87.5 -137.81,154.95 -34.68,67.44 -52.9,144 -82.07,253.38 -29.17,109.38 -69.27,251.56 -120.31,348.18 -51.04,96.61 -113.02,147.65 -163.11,158.59 -50.08,10.95 -88.28,-18.22 -117.44,-74.73 -29.16,-56.51 -49.3,-140.37 -77.6,-224.23 -28.3,-83.86 -64.76,-167.71 -97.58,-213.28 -32.81,-45.58 -61.97,-52.86 -96.61,-60.16 -34.64,-7.29 -74.74,-14.58 -100.26,-36.46 -25.52,-21.88 -36.46,-58.34 -58.33,-78.39 -21.88,-20.05 -54.69,-23.7 -78.39,-12.76 -23.69,10.94 -38.28,36.46 -65.63,74.75 -27.34,38.28 -67.44,89.32 -118.49,107.55 -51.04,18.23 -113.02,3.64 -158.59,-41.92 -45.58,-45.58 -74.74,-122.14 -136.68,-191.41 -61.93,-69.28 -156.63,-131.25 -249.56,-162.24 -44.13,-14.72 -87.86,-22.45 -117.9,-31l-13833.13 0c-11.22,5.62 -26.57,9.05 -41.8,14.59 -40.12,14.58 -79.37,43.74 -113.57,80.21 -34.21,36.46 -63.37,80.21 -83.42,147.66 -20.06,67.44 -31,158.59 -27.34,236.98 3.64,78.38 21.87,144 32.8,233.33 10.94,89.32 14.59,202.34 1.83,291.66 -12.76,89.33 -41.92,154.95 -92.97,191.41 -51.04,36.46 -123.96,43.75 -178.64,29.17 -54.69,-14.58 -91.15,-51.04 -120.31,-103.91 -29.17,-52.86 -51.04,-122.14 -60.16,-211.46 -9.12,-89.32 -5.47,-198.69 -7.29,-291.66 -1.83,-92.97 -9.11,-169.53 -21.88,-240.63 -12.76,-71.09 -30.99,-136.72 -54.69,-184.11 -23.7,-47.4 -52.86,-76.56 -80.21,-87.5 -27.34,-10.94 -52.87,-3.65 -74.75,14.58 -21.88,18.23 -40.1,47.39 -63.8,67.45 -23.7,20.05 -52.86,30.99 -74.74,30.99 -21.88,0 -36.46,-10.94 -52.84,-49.22 -16.38,-38.28 -34.57,-103.91 -83.76,-136.72 -23.6,-15.74 -54.33,-23.93 -78.31,-32.81l-2001.75 0 0 -218.35 0 -2368.28c7.63,-34.78 12.38,-48.51 20.06,-60.76 20.05,-31.99 60.15,-54.02 98.43,-61.39 38.28,-7.37 74.75,-0.09 107.56,61.9 32.81,61.98 61.97,178.64 87.5,386.46 25.52,207.81 47.39,506.78 74.74,705.48 27.34,198.69 60.16,297.13 83.86,353.64 23.69,56.5 38.28,71.09 63.8,83.86 25.52,12.75 61.98,23.69 89.33,20.05 27.34,-3.65 45.57,-21.88 87.5,-30.99 41.92,-9.12 107.55,-9.12 145.83,32.81 38.28,41.92 49.22,125.77 65.63,185.93 16.41,60.16 38.28,96.62 87.5,131.26 49.22,34.63 125.78,67.44 182.29,102.08 56.5,34.63 92.97,71.09 184.15,100.34 91.19,29.25 237.09,51.29 329.19,62.31 38.05,4.55 66.89,7.23 85.48,11.02l-0.01 0.04zm-1439.35 -4506.74l1834.07 0c-10.09,3.17 -19.93,6.3 -29.26,9.51 -110.94,38.04 -152.87,85.57 -198.19,154.91 -45.33,69.34 -94.05,160.49 -142.39,195.06 -48.35,34.56 -96.31,12.54 -151.28,-13.05 -54.98,-25.6 -116.95,-54.76 -191.66,1.21 -74.7,55.95 -162.13,197.03 -220.46,362.92 -58.33,165.89 -87.58,356.57 -145.94,559.48 -58.37,202.9 -145.87,417.99 -231.55,496.38 -85.68,78.39 -169.53,20.05 -216.89,-182.85 -47.36,-202.9 -58.23,-550.35 -81.88,-838.37 -23.66,-288.02 -60.12,-516.59 -136.68,-645.16 -25.19,-42.31 -54.73,-73.79 -87.87,-100.03l-0.02 -0.01zm4982.24 0l2455.76 0 -7.48 5.49c-91.15,67.44 -153.2,140.35 -196.99,229.68 -43.79,89.32 -69.32,195.04 -113.07,293.48 -43.75,98.44 -105.72,189.59 -178.64,145.84 -72.92,-43.75 -156.77,-222.4 -218.71,-357.29 -61.95,-134.89 -101.97,-226.03 -187.61,-271.59 -85.64,-45.58 -216.89,-45.58 -324.48,3.64 -107.59,49.21 -191.52,147.65 -299.11,182.28 -107.59,34.63 -238.84,5.47 -355.47,-43.75 -116.63,-49.22 -218.64,-118.48 -358.96,-153.11 -64.48,-15.92 -137.06,-24.52 -215.25,-34.66l0.01 -0.01zm12405.55 0l3258.73 0 0 772.72c-14.61,-44.05 -24.63,-93.27 -42.66,-129.78 -38.27,-77.54 -112.66,-97.75 -179.01,-95.09 -66.35,2.66 -124.69,28.19 -173.91,186.78 -49.22,158.59 -89.32,450.26 -116.66,776.56 -27.34,326.3 -41.93,687.24 -96.62,896.88 -54.69,209.63 -149.47,267.97 -216.92,127.61 -67.45,-140.37 -107.55,-479.43 -162.24,-858.59 -54.69,-379.17 -123.96,-798.45 -206,-1042.71 -82.03,-244.27 -176.82,-313.54 -262.5,-286.2 -85.67,27.34 -162.24,151.31 -198.7,315.37 -36.46,164.06 -32.8,368.22 -78.16,507.75 -45.35,139.53 -139.72,214.42 -186.89,191.71 -47.18,-22.72 -47.18,-143.03 -89.33,-333.59 -42.14,-190.57 -126.43,-451.4 -272.89,-634.67 -146.45,-183.28 -355.07,-289.01 -633.42,-341.87 -111.55,-21.19 -234.28,-33.89 -342.83,-52.87l0.01 -0.01zm2731.76 3301.48c-14.24,-102.36 -203.02,-176.14 -283.16,-110.68 -80.15,65.46 -51.66,270.17 42.72,307.07 94.39,36.89 254.69,-94.05 240.44,-196.39zm-19667.32 -1241.31c-32.81,-7.29 -69.28,36.46 -74.75,76.56 -5.47,40.1 20.06,76.57 52.87,83.86 32.81,7.29 72.91,-14.59 78.38,-54.69 5.47,-40.1 -23.69,-98.45 -56.5,-105.73zm13000.56 2128.05c73.41,-17.39 182.79,-57.49 235.65,-121.29 52.87,-63.81 49.22,-151.31 -5.47,-184.12 -54.69,-32.81 -160.41,-10.94 -232,50.2 -71.58,61.14 -109.03,161.54 -109.03,214.41 0,52.86 37.45,58.18 110.85,40.8zm-10931.54 2565.69c-34.64,-41.92 -92.98,-67.45 -147.66,-45.58 -54.69,21.88 -105.72,91.15 -96.61,160.42 9.11,69.27 78.39,138.54 138.54,145.83 60.16,7.29 111.19,-47.39 131.25,-103.91 20.05,-56.5 9.11,-114.84 -25.52,-156.77l0 0.01z"/>
 </g>
</svg>
