<?xml version="1.0" encoding="UTF-8"?>
<!DOCTYPE svg PUBLIC "-//W3C//DTD SVG 1.1//EN" "http://www.w3.org/Graphics/SVG/1.1/DTD/svg11.dtd">
<!-- Creator: CorelDRAW 2020 (64-Bit) -->
<svg xmlns="http://www.w3.org/2000/svg" xml:space="preserve" width="100%" height="100%" version="1.1" style="shape-rendering:geometricPrecision; text-rendering:geometricPrecision; image-rendering:optimizeQuality; fill-rule:evenodd; clip-rule:evenodd"
viewBox="0 0 3118.3 3118.3"
 xmlns:xlink="http://www.w3.org/1999/xlink"
 xmlns:xodm="http://www.corel.com/coreldraw/odm/2003">
 <defs>
  <style type="text/css">
   <![CDATA[
    .fil0 {fill:#0C98E9}
   ]]>
  </style>
 </defs>
 <g id="Слой_x0020_1">
  <metadata id="CorelCorpID_0Corel-Layer"/>
  <path class="fil0" d="M1674.36 1641.29l110.62 113.43 110.67 -108.1 -110.62 -113.2 -110.68 107.87 0.01 0zm-1518.25 -1470.85l2791.75 0 0 2791.75 -2791.75 0 0 -2791.75zm-163.29 2955.04l3118.34 0 0 -3118.34 -3118.34 0 0 3118.34zm2180.72 -2638.99l0 605.76c0,14.28 149.02,163.3 163.3,163.3l300.24 0 0 1395.88 -305.51 0c3.28,-39.47 13.99,-95.22 19.49,-133.27l115.89 -811.19c6.48,-44.82 17.38,-95.54 17.38,-140.64l-158.03 0c0,29.51 -6.55,57.9 -10.24,84.57l-140.85 982c-4.23,33.46 13.02,35.84 60.23,83.06 15.22,15.22 86.31,93.49 101.4,93.49l300.24 0c14.28,0 163.3,-149.02 163.3,-163.3l0 -2159.66c0,-16.38 -92.77,-100.65 -117.2,-125.1 -14.53,-14.55 -24.92,-32.54 -46.09,-38.19l0 774.32 -305.51 0 0 -774.32c-20.36,5.43 -29.54,21.6 -43.46,35.55 -14.43,14.47 -25.04,25.08 -39.5,39.5 -16.74,16.69 -22.78,23.3 -37.4,41.61 -9.55,11.95 -37.66,30.46 -37.66,46.62l-0.02 0.01zm-1869.94 0l0 2149.13c0,28.64 46.08,64.52 75.06,93.5 15.33,15.33 26.82,26.8 42.14,42.14 14.53,14.54 24.92,32.53 46.09,38.19l0 -2080.65c6.21,7.14 1.94,0.16 8.26,12.81l105.83 247.08c20.49,46.06 37.14,86.13 56.73,132.9l55.69 133.95 163.3 0c6.65,-28.56 40.29,-100.49 54.43,-129.93 20.79,-43.27 35.96,-86.49 56.19,-128.18 9.04,-18.65 104.48,-245 115.89,-258.11l0 516.22c11.57,-7.76 158.02,-147.14 158.02,-163.3l0 -611.02c0,-17.6 -60.76,-68.67 -75.06,-82.97 -17.65,-17.63 -62.46,-69.58 -82.96,-75.06l-305.52 737.45c-17.41,-12.77 -217.28,-511.07 -233.99,-550.86l-76.79 -186.58c-19.76,5.27 -163.29,151.45 -163.29,163.29l-0.02 0zm474.07 1106.17l460.07 266.83c24.94,13.59 133.04,80.69 156.23,86.09l0 705.84 -616.3 0 0 -1058.76zm-158.03 -21.08l0 1079.83c0,14.21 143.82,158.03 158.03,158.03l616.3 0c15.81,0 122.2,-114.48 141.17,-132.74 27.03,-26.01 16.85,-45.7 16.85,-120.1l0 -684.77c-22.92,-5.34 -362.13,-213.48 -390.79,-230.77 -65.63,-39.62 -129.64,-77.96 -194.19,-116.58l-194.6 -116.18c-19.81,29.57 -152.76,141.64 -152.76,163.29l-0.01 -0.01zm774.33 -1237.85l0 921.81 626.82 0 0 -158.03 -468.81 0 0 -305.51 453 0c12.14,0 15.8,-3.67 15.8,-15.8l0 -131.69c0,-12.14 -3.66,-15.8 -15.8,-15.8l-453 0 0 -147.48 453 0c12.14,0 15.8,-3.67 15.8,-15.8l0 -131.69c0,-12.13 -3.66,-15.8 -15.8,-15.8l-595.22 0c-12.14,0 -15.8,3.67 -15.8,15.8l0.01 -0.01zm468.79 2475.71c0,-235.02 5.06,-515.54 0.45,-748.42 -0.64,-31.69 -5.35,-29.24 -22.77,-45.72 -27.73,-26.22 -95.31,-111.16 -135.7,-138.2l-0.37 748.36c0,34.47 1.2,30.64 19.96,48.5 36.44,34.7 103.56,112.12 138.43,135.48z"/>
 </g>
</svg>
