<?xml version="1.0" encoding="UTF-8"?>
<!DOCTYPE svg PUBLIC "-//W3C//DTD SVG 1.1//EN" "http://www.w3.org/Graphics/SVG/1.1/DTD/svg11.dtd">
<!-- Creator: CorelDRAW 2020 (64-Bit) -->
<svg xmlns="http://www.w3.org/2000/svg" xml:space="preserve" width="100%" height="100%" version="1.1" style="shape-rendering:geometricPrecision; text-rendering:geometricPrecision; image-rendering:optimizeQuality; fill-rule:evenodd; clip-rule:evenodd"
viewBox="0 0 6562.5 3478.7"
 xmlns:xlink="http://www.w3.org/1999/xlink"
 xmlns:xodm="http://www.corel.com/coreldraw/odm/2003">
 <defs>
  <style type="text/css">
   <![CDATA[
    .fil0 {fill:#F21B78}
   ]]>
  </style>
 </defs>
 <g id="Слой_x0020_1">
  <metadata id="CorelCorpID_0Corel-Layer"/>
  <path class="fil0" d="M2817.56 1323.29c1.66,-175.23 301.54,-1182.76 580.46,-795.46 331.53,460.36 -254.36,779.74 -580.46,795.46zm-1599.49 -862.49c-131.1,76.36 -15.8,340.72 138.41,247.1 156.17,-94.79 -55.7,-295.3 -138.41,-247.1zm4429.32 305.47c16.47,-51.94 131.86,-88.75 168.14,-36.79 219.11,313.71 -279.56,388.54 -168.14,36.79zm61.05 -278.05c-406.23,102.35 -392.65,805.85 94.92,715.36 523.98,-97.27 243.17,-800.54 -94.92,-715.36zm-4523.14 563.35c-456.88,134.27 -311.14,1662.68 -24.31,1338.08 269.11,-304.56 -84.31,-243.25 35.78,-732.07 27.49,-111.88 372.98,-718.98 -11.47,-606.01zm4735.51 1548.36c-109.56,-225.49 -36.14,-996.06 -147.67,-1099.9 -332.7,-309.76 -167.16,865.32 -157.28,958.91 149.36,1414.37 713.85,28.26 823.36,-478.27 56.7,-262.23 206.92,-1536.44 50.11,-1748 -246.14,-272.66 -167.47,149.85 -153.11,247.2 61.68,417.51 -106.94,1852.06 -415.41,2120.07l0 -0.01zm-1388.42 -537.68c319.32,-11.75 147.91,-560.35 200.84,-695.32 87.09,-26.66 180.56,-75.82 295.98,28.05 46.18,173.14 72.89,492.86 66.11,743.97 -9.08,335.85 -302.46,938.05 -125.65,1027.58 298.08,206.61 392.98,-1035.75 394.28,-1159.81 1.55,-149.92 -49.88,-593.49 -99.62,-713.42 -117.15,-282.39 -449.91,-106.39 -548.33,-161.78 181.67,-114.35 403.18,113.85 543.33,-379.13 27.82,-97.87 114.7,-842.27 -158.83,-628.39 -151.61,186.58 226.15,781.02 -395.35,785.24 -8.03,-207.37 -53.52,-531.05 -135.56,-720.87 -46.51,-107.62 -187.16,-232.28 -228.26,-73.01 -15.55,60.3 69.52,255.1 86.68,332.71 64.27,290.71 -27.86,1645.21 104.38,1614.17l0 0.01zm-4165.34 -1872.05c-350.04,185.88 -376.98,1093.31 -369.99,1446.52 5.92,298.88 57.4,642.57 29.19,928.67 -13.64,138.45 -72.62,329.93 108.61,353.39 822.17,106.48 2096.27,288.85 2149.8,-905.52 -63.28,-225.13 -290.58,-384.77 44.72,-847.84 52.36,-49.52 24.31,-125.2 -71.33,-92.57 -92.07,31.4 -246.8,104.29 -323.89,165.06 -192.02,151.36 -183.75,468.04 -78.43,699.64 306.76,674.69 -372.34,872.5 -784.19,785.61 -275.69,-58.18 -343.92,-116.14 -662.92,-291.14 -554.75,-409.17 130.71,-1659.2 170.99,-2075.86 11.08,-114.48 -103.04,-224.12 -212.56,-165.97l0 0.01zm2635.94 1396.35l489.46 -214.03c727.6,-318.17 208.57,1477.72 459.38,1684.38l70.76 58.3c189.98,86.95 488.36,-231.8 477.74,-427.67l-41.59 -86.14c-950.56,882.06 587.77,-1493.62 -869.21,-1486.56 271.62,-202.77 90.76,-614.13 -93.35,-826.14 -303.12,-349.04 -268.22,-439.24 -564.52,93.63 -450.48,810.1 -430.71,941.22 -159.15,1806.23 149.42,475.97 233.49,433.07 -64.02,875.44 -25.58,38.01 -294.22,277.63 -297.85,280.07 -277.29,186.33 664.6,367.01 707.32,-744.34 16.84,-461.98 -466.02,-859.65 -114.95,-1013.16l-0.02 -0.01z"/>
 </g>
</svg>
