<?xml version="1.0" encoding="UTF-8"?>
<!DOCTYPE svg PUBLIC "-//W3C//DTD SVG 1.1//EN" "http://www.w3.org/Graphics/SVG/1.1/DTD/svg11.dtd">
<!-- Creator: CorelDRAW 2020 (64-Bit) -->
<svg xmlns="http://www.w3.org/2000/svg" xml:space="preserve" width="100%" height="100%" version="1.1" style="shape-rendering:geometricPrecision; text-rendering:geometricPrecision; image-rendering:optimizeQuality; fill-rule:evenodd; clip-rule:evenodd"
viewBox="0 0 21000 11131.8"
 xmlns:xlink="http://www.w3.org/1999/xlink"
 xmlns:xodm="http://www.corel.com/coreldraw/odm/2003">
 <defs>
  <style type="text/css">
   <![CDATA[
    .fil0 {fill:#707070}
   ]]>
  </style>
 </defs>
 <g id="Слой_x0020_1">
  <metadata id="CorelCorpID_0Corel-Layer"/>
  <path class="fil0" d="M9016.19 4234.51c5.31,-560.74 964.93,-3784.83 1857.47,-2545.47 1060.9,1473.15 -813.95,2495.17 -1857.47,2545.47zm-5118.37 -2759.97c-419.52,244.35 -50.56,1090.3 442.91,790.72 499.74,-303.33 -178.24,-944.96 -442.91,-790.72zm14173.83 977.5c52.7,-166.21 421.95,-284 538.05,-117.73 701.15,1003.87 -894.59,1243.33 -538.05,117.73zm195.36 -889.76c-1299.94,327.52 -1256.48,2578.72 303.74,2289.15 1676.74,-311.26 778.14,-2561.73 -303.74,-2289.15zm-14474.05 1802.72c-1462.02,429.66 -995.65,5320.58 -77.79,4281.86 861.15,-974.59 -269.79,-778.4 114.5,-2342.62 87.97,-358.02 1193.54,-2300.74 -36.7,-1939.23l-0.01 -0.01zm15153.63 4954.76c-350.59,-721.57 -115.65,-3187.39 -472.54,-3519.68 -1064.64,-991.23 -534.91,2769.02 -503.3,3068.51 477.95,4525.98 2284.32,90.43 2634.75,-1530.46 181.44,-839.14 662.14,-4916.61 160.35,-5593.6 -787.65,-872.51 -535.9,479.52 -489.95,791.04 197.38,1336.03 -342.21,5926.59 -1329.31,6784.22l0 -0.03zm-4442.94 -1720.58c1021.82,-37.6 473.31,-1793.12 642.69,-2225.02 278.69,-85.31 577.79,-242.62 947.14,89.76 147.78,554.05 233.25,1577.15 211.55,2380.7 -29.06,1074.72 -967.87,3001.76 -402.08,3288.26 953.86,661.15 1257.54,-3314.4 1261.7,-3711.39 4.96,-479.74 -159.62,-1899.17 -318.78,-2282.94 -374.88,-903.65 -1439.71,-340.45 -1754.66,-517.7 581.34,-365.92 1290.18,364.32 1738.66,-1213.22 89.02,-313.18 367.04,-2695.26 -508.26,-2010.85 -485.15,597.06 723.68,2499.26 -1265.12,2512.77 -25.7,-663.58 -171.26,-1699.36 -433.79,-2306.78 -148.83,-344.38 -598.91,-743.3 -730.43,-233.63 -49.76,192.96 222.46,816.32 277.38,1064.67 205.66,930.27 -89.15,5264.67 334.02,5165.34l0 0.03 -0.02 0zm-13329.09 -5990.56c-1120.13,594.82 -1206.34,3498.59 -1183.97,4628.86 18.94,956.42 183.68,2056.22 93.41,2971.74 -43.65,443.04 -232.38,1055.78 347.55,1130.85 2630.94,340.74 6708.06,924.32 6879.36,-2897.66 -202.5,-720.42 -929.86,-1231.26 143.1,-2713.09 167.55,-158.46 77.79,-400.64 -228.26,-296.22 -294.62,100.48 -789.76,333.73 -1036.45,528.19 -614.46,484.35 -588,1497.73 -250.98,2238.85 981.63,2159.01 -1191.49,2792 -2509.41,2513.95 -882.21,-186.18 -1100.54,-371.65 -2121.34,-931.65 -1775.2,-1309.34 418.27,-5309.44 547.17,-6642.75 35.46,-366.34 -329.73,-717.18 -680.19,-531.1l0 0.03 0.01 0zm8435.01 4468.32l1566.27 -684.9c2328.32,-1018.14 667.42,4728.7 1470.02,5390.02l226.43 186.56c607.94,278.24 1562.75,-741.76 1528.77,-1368.54l-133.09 -275.65c-3041.79,2822.59 1880.86,-4779.58 -2781.47,-4756.99 869.18,-648.86 290.43,-1965.22 -298.72,-2643.65 -969.98,-1116.93 -858.3,-1405.57 -1806.46,299.62 -1441.54,2592.32 -1378.27,3011.9 -509.28,5779.94 478.14,1523.1 747.17,1385.82 -204.86,2801.41 -81.86,121.63 -941.5,888.42 -953.12,896.22 -887.33,596.26 2126.72,1174.43 2263.42,-2381.89 53.89,-1478.34 -1491.26,-2750.88 -367.84,-3242.11l-0.06 -0.03 -0.01 -0.01z"/>
 </g>
</svg>
