<?xml version="1.0" encoding="UTF-8"?>
<!DOCTYPE svg PUBLIC "-//W3C//DTD SVG 1.1//EN" "http://www.w3.org/Graphics/SVG/1.1/DTD/svg11.dtd">
<!-- Creator: CorelDRAW 2020 (64-Bit) -->
<svg xmlns="http://www.w3.org/2000/svg" xml:space="preserve" width="100%" height="100%" version="1.1" style="shape-rendering:geometricPrecision; text-rendering:geometricPrecision; image-rendering:optimizeQuality; fill-rule:evenodd; clip-rule:evenodd"
viewBox="0 0 21000 21000.3"
 xmlns:xlink="http://www.w3.org/1999/xlink"
 xmlns:xodm="http://www.corel.com/coreldraw/odm/2003">
 <defs>
  <style type="text/css">
   <![CDATA[
    .fil0 {fill:#757575}
   ]]>
  </style>
 </defs>
 <g id="Слой_x0020_1">
  <metadata id="CorelCorpID_0Corel-Layer"/>
  <path class="fil0" d="M11275.87 11053.32l744.96 763.89 745.3 -727.99 -744.96 -762.34 -745.37 726.44 0.07 0zm-10224.56 -9905.35l18800.87 0 0 18800.87 -18800.87 0 0 -18800.87zm-1099.66 19900.53l21000.27 0 0 -21000.27 -21000.27 0 0 21000.27zm14685.92 -17772.11l0 4079.45c0,96.17 1003.57,1099.73 1099.73,1099.73l2021.95 0 0 9400.47 -2057.44 0c22.09,-265.81 94.21,-641.25 131.25,-897.5l780.45 -5462.91c43.64,-301.84 117.04,-643.41 117.04,-947.13l-1064.24 0c0,198.73 -44.11,389.92 -68.96,569.53l-948.55 6613.22c-28.49,225.33 87.68,241.36 405.62,559.36 102.5,102.5 581.25,629.6 682.87,629.6l2021.95 0c96.17,0 1099.73,-1003.57 1099.73,-1099.73l0 -14544.1c0,-110.31 -624.75,-677.82 -789.28,-842.48 -97.85,-97.99 -167.82,-219.14 -310.39,-257.19l0 5214.61 -2057.44 0 0 -5214.61c-137.11,36.57 -198.94,145.46 -292.68,239.41 -97.18,97.45 -168.63,168.9 -266.01,266.01 -112.73,112.4 -153.41,156.91 -251.87,280.22 -64.31,80.48 -253.62,205.13 -253.62,313.96l-0.13 0.07 0.02 0.01zm-12592.99 0l0 14473.18c0,192.87 310.32,434.51 505.49,629.67 103.24,103.24 180.62,180.48 283.79,283.79 97.85,97.92 167.82,219.07 310.39,257.19l0 -14012.01c41.82,48.08 13.06,1.08 55.63,86.27l712.71 1663.95c137.99,310.19 250.12,580.04 382.04,895.01l375.04 902.08 1099.73 0c44.78,-192.34 271.33,-676.74 366.56,-875.01 140.01,-291.4 242.17,-582.46 378.41,-863.22 60.88,-125.6 703.61,-1649.94 780.45,-1738.23l0 3476.45c77.92,-52.26 1064.18,-990.91 1064.18,-1099.73l0 -4114.88c0,-118.53 -409.18,-462.45 -505.49,-558.76 -118.86,-118.73 -420.63,-468.58 -558.69,-505.49l-2057.51 4966.31c-117.25,-86 -1463.26,-3441.77 -1575.79,-3709.73l-517.14 -1256.51c-133.07,35.49 -1099.67,1019.93 -1099.67,1099.67l-0.13 0zm3192.59 7449.43l3098.31 1796.95c167.96,91.52 895.95,543.4 1052.12,579.77l0 4753.44 -4150.43 0 0 -7130.15 0 -0.01zm-1064.24 -141.96l0 7272.05c0,95.7 968.55,1064.24 1064.24,1064.24l4150.43 0c106.47,0 822.95,-770.96 950.7,-893.93 182.03,-175.16 113.48,-307.76 113.48,-808.81l0 -4611.54c-154.35,-35.96 -2438.74,-1437.67 -2631.75,-1554.11 -441.98,-266.82 -873.05,-525.02 -1307.76,-785.1l-1310.52 -782.41c-133.41,199.14 -1028.75,953.87 -1028.75,1099.67l-0.07 -0.07 0 0.01zm5214.68 -8336.23l0 6207.87 4221.28 0 0 -1064.24 -3157.17 0 0 -2057.44 3050.7 0c81.76,0 106.4,-24.72 106.4,-106.4l0 -886.86c0,-81.76 -24.65,-106.4 -106.4,-106.4l-3050.7 0 0 -993.19 3050.7 0c81.76,0 106.4,-24.72 106.4,-106.4l0 -886.86c0,-81.69 -24.65,-106.4 -106.4,-106.4l-4008.47 0c-81.76,0 -106.4,24.72 -106.4,106.4l0.07 -0.07 -0.01 -0.01zm3157.03 16672.52c0,-1582.73 34.08,-3471.87 3.03,-5040.19 -4.31,-213.41 -36.03,-196.91 -153.34,-307.9 -186.75,-176.58 -641.86,-748.6 -913.86,-930.7l-2.49 5039.78c0,232.14 8.08,206.34 134.42,326.62 245.4,233.69 697.42,755.07 932.25,912.38l-0.01 0.01z"/>
 </g>
</svg>
