<?xml version="1.0" encoding="UTF-8"?>
<!DOCTYPE svg PUBLIC "-//W3C//DTD SVG 1.1//EN" "http://www.w3.org/Graphics/SVG/1.1/DTD/svg11.dtd">
<!-- Creator: CorelDRAW 2020 (64-Bit) -->
<svg xmlns="http://www.w3.org/2000/svg" xml:space="preserve" width="100%" height="100%" version="1.1" style="shape-rendering:geometricPrecision; text-rendering:geometricPrecision; image-rendering:optimizeQuality; fill-rule:evenodd; clip-rule:evenodd"
viewBox="0 0 21000 11688.8"
 xmlns:xlink="http://www.w3.org/1999/xlink"
 xmlns:xodm="http://www.corel.com/coreldraw/odm/2003">
 <defs>
  <style type="text/css">
   <![CDATA[
    .fil1 {fill:#A3A3A3}
    .fil2 {fill:#FDFDFD}
    .fil0 {fill:#FEFEFD}
   ]]>
  </style>
 </defs>
 <g id="Слой_x0020_1">
  <metadata id="CorelCorpID_0Corel-Layer"/>
  <g id="_785620592">
   <path class="fil0" d="M11063.04 4540.88c589.98,-174.91 993.54,131.58 1473.47,325.63 457.89,185.12 823.14,390.53 987.55,892.16 163.94,500.13 39.94,1183.17 -165.79,1585.92 -704.61,1379.07 -2686.43,1222.66 -3338.11,-328.8 -313.57,-746.56 39.9,-1768.54 472.77,-2123.94 489.18,-401.6 96.1,-210.4 570.11,-350.98l0 0.01zm3400.8 3953.41c109.95,-478.59 626.43,-603.71 606.37,-2292.93 -16.38,-1376.45 -716.13,-1711.68 -856.16,-2040.29 244,33.89 377.98,139.65 522.18,252.9 488.26,383.46 955.23,568.64 1298.75,815.3 892.1,640.48 1542.53,619.87 1967.36,868.1l25.92 195.46c-301.09,298.4 -1742.75,686.14 -2658.88,1684.32 -180.42,196.58 -122.82,239.04 -407.23,316.22 -198.98,53.98 -304.9,132.64 -498.3,200.96l0 -0.03 -0.01 -0.01zm-7209.98 -4733.03c-185.82,1.47 -81.25,-89.15 -164.67,114.56 -48.1,117.47 -26.5,153.44 -13.79,256.06 134.94,78.94 185.22,143.2 282.78,266.5 139.71,176.64 138.82,93.5 250.24,240.96 -55.65,163.14 -89.47,141.5 -200.42,244.38 -276,255.9 20.99,172.26 -756.38,589.98l-161.57 556.32c410.98,-146.85 881.86,-546.4 1034.66,-619.84 429.98,-206.62 28.58,-128.13 951.74,-697.44l675.14 -458.69c8.26,496.19 -85.79,153.82 -271.14,446.59 -252.74,399.26 -420.51,1047.26 -486.82,1540.29 -184.83,1374.11 344.26,1776.96 470.46,2152.74l-1255.78 -804.13c-885.86,-559.07 -167.04,-242.18 -1031.39,-537.18 -128.58,-43.87 -202.27,-94.02 -338.21,-143.62l-135.84 398.08c710.18,243.23 460.22,224 584.96,420.74 134.59,212.29 473.18,244.42 659.39,402.3 -84.99,281.06 -299.97,348.03 -145.57,643.9l245.22 8.86c258.4,-532.93 56.03,-697.12 1111.52,18.69 253.5,171.9 605.6,364.96 908.06,517.02 744.67,374.34 1404.58,421.15 2282.02,514.14 -11.42,245.28 15.39,745.38 145.15,912.42 283.65,45.73 272.03,-85.7 317.25,-314.24 47.84,-241.86 45.25,-309.76 65.76,-581.63 948.8,-9.44 1783.2,-612.48 2194.59,-716.22l561.5 -314.75 703.58 -544.03c76.13,52.03 16.93,5.44 76.58,68.13 199.42,209.6 387.55,549.18 694.4,292.93 -40.29,-224.51 -320.1,-388.74 -439.74,-505.22 41.09,-448.42 782.91,-674.69 1104.8,-922.43 462.21,-355.65 968.48,-453.89 1602.08,-429.38 265.79,-101.6 420.26,-113.28 422.34,-489.79 3.1,-565.54 -854.21,-408.58 -1265.73,-565.15 -883.2,-336.03 -1301.34,-700.1 -2066.62,-1149.73 -181.44,-106.59 -135.07,-114.27 -253.31,-206.43 -350.5,-272.96 -282.85,56.7 -455.65,-518.53 306.27,-155.94 318.18,-296.16 530.43,-512.9 145.25,-209.47 463.68,-470.43 310.43,-777.31 -159.01,-143.23 -288.86,-34.82 -424.16,32.38 -146.21,181.86 -249.76,362.85 -397.34,598.02 -78.53,125.15 -301.7,527.62 -389.73,611.58l-264.67 -111.26c-187.14,-74.78 -993.6,-482.05 -1150.72,-657.18 116.35,-230.82 448.19,-832.77 396.45,-1141.34 -362.14,-200.61 -386.62,-0.77 -533.25,322.72 -56.35,124.22 -126.59,236.74 -185.98,364.64 -94.24,202.94 -13.79,264.38 -144.99,398.75 -9.28,7.55 -26.46,2.78 -32,16.35l-976.93 -1.28c-28.26,2.46 -158.3,22.24 -161.02,22.3l-67.74 -2.88c-426.91,-76.48 192.99,-1731.55 -408.42,-1696.19 -417.66,24.58 -178.62,1140.96 -174.27,1671.14 -151.42,100.86 -1435.55,412.03 -1535.39,376.35 -58.82,-104.96 -34.24,-72 -70.21,-209.86 -162.37,-622.56 -260.22,-1259.1 -761.02,-1098.53 -63.04,224.51 -54.5,202.08 12.83,423.36 149.6,491.23 -229.95,150.24 408.67,1156.29 -94.46,51.01 -712.06,754.53 -1254.3,779.23 -362.27,-504.8 -291.26,-136.96 -628.22,-651.55l-0.03 0 -0.01 0.01z"/>
   <path class="fil1" d="M6102.88 7306.86l135.84 -398.08c15.97,-228.99 164.03,-710.14 251.33,-878.72l161.57 -556.32c24.77,-253.92 115.04,-463.58 183.1,-709.47 60,-216.77 91.14,-509.09 240.67,-632.35 -12.74,-102.62 -34.3,-138.59 13.79,-256.06 83.42,-203.71 -21.15,-113.09 164.67,-114.56 -154.62,-170.69 14.82,-508.86 160.96,-984.93 595.94,-1941.25 368.06,-2251.84 1825.47,-2075.49l-1.34 -337.73 -3602.94 -20.74 3.3 359.26c737.31,-178.82 1200.48,-84.29 941.89,741.79l-1349.89 4583.78 -260.03 868.38c-241.12,36.96 -360.38,19.65 -562.98,-59.2 145.25,117.66 285.02,85.6 520.64,98.21 -2.85,248.99 -779.26,2844.9 -911.07,3147.52 -251.1,-714.5 -462.46,-1838.11 -637.44,-2618.94l-1239.23 -5288.45c-66.72,-280.06 -308.13,-1085.34 -236.35,-1325.63 136.9,-458.08 800,-209.63 1198.05,-174.82l0.35 -323.49 -3101.22 -22.18 -14.24 354.85c560.32,-134.53 1063.68,-228.26 1330.4,246.56 278.56,496.03 1969.7,7643.01 2319.36,8982.5 87.87,336.7 264,1243.46 391.81,1483.9 163.65,66.3 676.42,65.38 849.31,6.24l1224.22 -4095.87 0 0.03 0 0.01z"/>
   <path class="fil1" d="M11063.04 4540.88c-474.02,140.58 -80.93,-50.62 -570.11,350.98 -432.86,355.39 -786.34,1377.41 -472.77,2123.94 651.68,1551.46 2633.5,1707.87 3338.11,328.8 205.73,-402.75 329.76,-1085.79 165.79,-1585.92 -164.42,-501.66 -529.66,-707.04 -987.55,-892.16 -479.94,-194.05 -883.49,-500.54 -1473.47,-325.63l0 -0.01z"/>
   <path class="fil1" d="M18774.46 6778.13c231.81,23.23 188.03,63.52 488.1,366.85 1021.92,1033.12 739.84,3242.98 -520.45,4021.34 -793.06,489.79 -1939.68,299.81 -2552.48,-212.93 -830.98,-695.26 -847.52,-1315.71 -1156.9,-2135.26l-561.5 314.75 9.47 1957.82 283.62 10.82 205.38 -832.42c244.29,138.98 521.18,837.6 1445.22,1194.56 670.11,258.85 1595.52,319.87 2301.89,91.36 1075.33,-347.9 2243.94,-1529.73 2270.3,-2964.35 32.19,-1753.98 -1026.34,-2419.62 -2204.54,-3034.11 -571.78,-298.18 -1195.87,-558.08 -1765.6,-849.89 -496.22,-254.21 -1256.13,-788.61 -1331.07,-1371.01 -212.26,216.77 -224.16,356.96 -530.43,512.9 172.83,575.23 105.15,245.54 455.65,518.53 118.27,92.16 71.87,99.81 253.31,206.43 765.28,449.66 1183.46,813.7 2066.62,1149.73 411.52,156.58 1268.83,-0.38 1265.73,565.15 -2.08,376.51 -156.54,388.16 -422.34,489.79l0.03 -0.06 -0.01 0z"/>
   <path class="fil1" d="M14520.38 3689.04l264.67 111.26c88.06,-83.97 311.2,-486.43 389.73,-611.58 147.58,-235.17 251.14,-416.13 397.34,-598.02 -5.5,-1347.49 943.97,-2405.34 2363.9,-2252.9 1199.33,128.77 1793.7,1107.71 1950.21,2146.59 13.09,86.88 16.54,164.42 25.44,249.92 34.14,327.78 -48.99,64.64 65.34,270.75l278.24 -2.53 -0.29 -2953.6 -231.97 -8.26c-172.38,258.85 -65.12,805.02 -229.7,1057.76 -1231.94,-1629.18 -3993.92,-1381.22 -4981.5,396.67 -436.29,785.38 -357.76,1245.63 -291.46,2193.89l0.03 0.03 0.02 0.02z"/>
   <path class="fil2" d="M4408.29 6836.4c202.59,78.85 321.86,96.16 562.98,59.2l260.03 -868.38c-396,41.5 -391.68,-45.38 -796.83,151.58 -288.83,140.38 -281.76,470.94 -26.18,657.6z"/>
  </g>
 </g>
</svg>
