<?xml version="1.0" encoding="UTF-8"?>
<!DOCTYPE svg PUBLIC "-//W3C//DTD SVG 1.1//EN" "http://www.w3.org/Graphics/SVG/1.1/DTD/svg11.dtd">
<!-- Creator: CorelDRAW 2020 (64-Bit) -->
<svg xmlns="http://www.w3.org/2000/svg" xml:space="preserve" width="100%" height="100%" version="1.1" style="shape-rendering:geometricPrecision; text-rendering:geometricPrecision; image-rendering:optimizeQuality; fill-rule:evenodd; clip-rule:evenodd"
viewBox="0 0 6562.5 3652.8"
 xmlns:xlink="http://www.w3.org/1999/xlink"
 xmlns:xodm="http://www.corel.com/coreldraw/odm/2003">
 <defs>
  <style type="text/css">
   <![CDATA[
    .fil1 {fill:#AD0001}
    .fil2 {fill:#FDFDFD}
    .fil0 {fill:#FEFEFD}
   ]]>
  </style>
 </defs>
 <g id="Слой_x0020_1">
  <metadata id="CorelCorpID_0Corel-Layer"/>
  <g id="_785620592">
   <path class="fil0" d="M3457.2 1419.05c184.37,-54.66 310.48,41.12 460.46,101.76 143.09,57.85 257.23,122.04 308.61,278.8 51.23,156.29 12.48,369.74 -51.81,495.6 -220.19,430.96 -839.51,382.08 -1043.16,-102.75 -97.99,-233.3 12.47,-552.67 147.74,-663.73 152.87,-125.5 30.03,-65.75 178.16,-109.68zm1062.75 1235.44c34.36,-149.56 195.76,-188.66 189.49,-716.54 -5.12,-430.14 -223.79,-534.9 -267.55,-637.59 76.25,10.59 118.12,43.64 163.18,79.03 152.58,119.83 298.51,177.7 405.86,254.78 278.78,200.15 482.04,193.71 614.8,271.28l8.1 61.08c-94.09,93.25 -544.61,214.42 -830.9,526.35 -56.38,61.43 -38.38,74.7 -127.26,98.82 -62.18,16.87 -95.28,41.45 -155.72,62.8l0 -0.01zm-2253.12 -1479.07c-58.07,0.46 -25.39,-27.86 -51.46,35.8 -15.03,36.71 -8.28,47.95 -4.31,80.02 42.17,24.67 57.88,44.75 88.37,83.28 43.66,55.2 43.38,29.22 78.2,75.3 -17.39,50.98 -27.96,44.22 -62.63,76.37 -86.25,79.97 6.56,53.83 -236.37,184.37l-50.49 173.85c128.43,-45.89 275.58,-170.75 323.33,-193.7 134.37,-64.57 8.93,-40.04 297.42,-217.95l210.98 -143.34c2.58,155.06 -26.81,48.07 -84.73,139.56 -78.98,124.77 -131.41,327.27 -152.13,481.34 -57.76,429.41 107.58,555.3 147.02,672.73l-392.43 -251.29c-276.83,-174.71 -52.2,-75.68 -322.31,-167.87 -40.18,-13.71 -63.21,-29.38 -105.69,-44.88l-42.45 124.4c221.93,76.01 143.82,70 182.8,131.48 42.06,66.34 147.87,76.38 206.06,125.72 -26.56,87.83 -93.74,108.76 -45.49,201.22l76.63 2.77c80.75,-166.54 17.51,-217.85 347.35,5.84 79.22,53.72 189.25,114.05 283.77,161.57 232.71,116.98 438.93,131.61 713.13,160.67 -3.57,76.65 4.81,232.93 45.36,285.13 88.64,14.29 85.01,-26.78 99.14,-98.2 14.95,-75.58 14.14,-96.8 20.55,-181.76 296.5,-2.95 557.25,-191.4 685.81,-223.82l175.47 -98.36 219.87 -170.01c23.79,16.26 5.29,1.7 23.93,21.29 62.32,65.5 121.11,171.62 217,91.54 -12.59,-70.16 -100.03,-121.48 -137.42,-157.88 12.84,-140.13 244.66,-210.84 345.25,-288.26 144.44,-111.14 302.65,-141.84 500.65,-134.18 83.06,-31.75 131.33,-35.4 131.98,-153.06 0.97,-176.73 -266.94,-127.68 -395.54,-176.61 -276,-105.01 -406.67,-218.78 -645.82,-359.29 -56.7,-33.31 -42.21,-35.71 -79.16,-64.51 -109.53,-85.3 -88.39,17.72 -142.39,-162.04 95.71,-48.73 99.43,-92.55 165.76,-160.28 45.39,-65.46 144.9,-147.01 97.01,-242.91 -49.69,-44.76 -90.27,-10.88 -132.55,10.12 -45.69,56.83 -78.05,113.39 -124.17,186.88 -24.54,39.11 -94.28,164.88 -121.79,191.12l-82.71 -34.77c-58.48,-23.37 -310.5,-150.64 -359.6,-205.37 36.36,-72.13 140.06,-260.24 123.89,-356.67 -113.17,-62.69 -120.82,-0.24 -166.64,100.85 -17.61,38.82 -39.56,73.98 -58.12,113.95 -29.45,63.42 -4.31,82.62 -45.31,124.61 -2.9,2.36 -8.27,0.87 -10,5.11l-305.29 -0.4c-8.83,0.77 -49.47,6.95 -50.32,6.97l-21.17 -0.9c-133.41,-23.9 60.31,-541.11 -127.63,-530.06 -130.52,7.68 -55.82,356.55 -54.46,522.23 -47.32,31.52 -448.61,128.76 -479.81,117.61 -18.38,-32.8 -10.7,-22.5 -21.94,-65.58 -50.74,-194.55 -81.32,-393.47 -237.82,-343.29 -19.7,70.16 -17.03,63.15 4.01,132.3 46.75,153.51 -71.86,46.95 127.71,361.34 -29.52,15.94 -222.52,235.79 -391.97,243.51 -113.21,-157.75 -91.02,-42.8 -196.32,-203.61l-0.01 0z"/>
   <path class="fil1" d="M1907.15 2283.42l42.45 -124.4c4.99,-71.56 51.26,-221.92 78.54,-274.6l50.49 -173.85c7.74,-79.35 35.95,-144.87 57.22,-221.71 18.75,-67.74 28.48,-159.09 75.21,-197.61 -3.98,-32.07 -10.72,-43.31 4.31,-80.02 26.07,-63.66 -6.61,-35.34 51.46,-35.8 -48.32,-53.34 4.63,-159.02 50.3,-307.79 186.23,-606.64 115.02,-703.7 570.46,-648.59l-0.42 -105.54 -1125.92 -6.48 1.03 112.27c230.41,-55.88 375.15,-26.34 294.34,231.81l-421.84 1432.43 -81.26 271.37c-75.35,11.55 -112.62,6.14 -175.93,-18.5 45.39,36.77 89.07,26.75 162.7,30.69 -0.89,77.81 -243.52,889.03 -284.71,983.6 -78.47,-223.28 -144.52,-574.41 -199.2,-818.42l-387.26 -1652.64c-20.85,-87.52 -96.29,-339.17 -73.86,-414.26 42.78,-143.15 250,-65.51 374.39,-54.63l0.11 -101.09 -969.13 -6.93 -4.45 110.89c175.1,-42.04 332.4,-71.33 415.75,77.05 87.05,155.01 615.53,2388.44 724.8,2807.03 27.46,105.22 82.5,388.58 122.44,463.72 51.14,20.72 211.38,20.43 265.41,1.95l382.57 -1279.96 0 0.01z"/>
   <path class="fil1" d="M3457.2 1419.05c-148.13,43.93 -25.29,-15.82 -178.16,109.68 -135.27,111.06 -245.73,430.44 -147.74,663.73 203.65,484.83 822.97,533.71 1043.16,102.75 64.29,-125.86 103.05,-339.31 51.81,-495.6 -51.38,-156.77 -165.52,-220.95 -308.61,-278.8 -149.98,-60.64 -276.09,-156.42 -460.46,-101.76z"/>
   <path class="fil1" d="M5867.02 2118.19c72.44,7.26 58.76,19.85 152.53,114.64 319.35,322.85 231.2,1013.43 -162.64,1256.67 -247.83,153.06 -606.15,93.69 -797.65,-66.54 -259.68,-217.27 -264.85,-411.16 -361.53,-667.27l-175.47 98.36 2.96 611.82 88.63 3.38 64.18 -260.13c76.34,43.43 162.87,261.75 451.63,373.3 209.41,80.89 498.6,99.96 719.34,28.55 336.04,-108.72 701.23,-478.04 709.47,-926.36 10.06,-548.12 -320.73,-756.13 -688.92,-948.16 -178.68,-93.18 -373.71,-174.4 -551.75,-265.59 -155.07,-79.44 -392.54,-246.44 -415.96,-428.44 -66.33,67.74 -70.05,111.55 -165.76,160.28 54.01,179.76 32.86,76.73 142.39,162.04 36.96,28.8 22.46,31.19 79.16,64.51 239.15,140.52 369.83,254.28 645.82,359.29 128.6,48.93 396.51,-0.12 395.54,176.61 -0.65,117.66 -48.92,121.3 -131.98,153.06l0.01 -0.02z"/>
   <path class="fil1" d="M4537.62 1152.85l82.71 34.77c27.52,-26.24 97.25,-152.01 121.79,-191.12 46.12,-73.49 78.48,-130.04 124.17,-186.88 -1.72,-421.09 294.99,-751.67 738.72,-704.03 374.79,40.24 560.53,346.16 609.44,670.81 4.09,27.15 5.17,51.38 7.95,78.1 10.67,102.43 -15.31,20.2 20.42,84.61l86.95 -0.79 -0.09 -923 -72.49 -2.58c-53.87,80.89 -20.35,251.57 -71.78,330.55 -384.98,-509.12 -1248.1,-431.63 -1556.72,123.96 -136.34,245.43 -111.8,389.26 -91.08,685.59l0.01 0.01z"/>
   <path class="fil2" d="M1377.59 2136.4c63.31,24.64 100.58,30.05 175.93,18.5l81.26 -271.37c-123.75,12.97 -122.4,-14.18 -249.01,47.37 -90.26,43.87 -88.05,147.17 -8.18,205.5z"/>
  </g>
 </g>
</svg>
